<svg width="40" height="40" viewBox="0 0 40 40" fill="none" xmlns="http://www.w3.org/2000/svg">
<path d="M4.99999 28.3333H35C35.9167 28.3333 36.6667 29.0833 36.6667 30C36.6667 30.9167 35.9167 31.6667 35 31.6667H4.99999C4.08332 31.6667 3.33332 30.9167 3.33332 30C3.33332 29.0833 4.08332 28.3333 4.99999 28.3333ZM4.16666 20.95C4.76666 21.3 5.53332 21.0833 5.88332 20.4833L6.66666 19.1167L7.46666 20.5C7.81666 21.1 8.58332 21.3 9.18332 20.9667C9.78332 20.6167 9.98332 19.8667 9.64999 19.2667L8.83332 17.8667H10.4167C11.1 17.8667 11.6667 17.3 11.6667 16.6167C11.6667 15.9333 11.1 15.3667 10.4167 15.3667H8.83332L9.61666 14C9.96666 13.4 9.76666 12.6333 9.16666 12.2833C8.87622 12.1217 8.53408 12.08 8.21331 12.1672C7.89255 12.2544 7.6186 12.4635 7.44999 12.75L6.66666 14.1167L5.88332 12.75C5.71471 12.4635 5.44076 12.2544 5.12 12.1672C4.79924 12.08 4.45709 12.1217 4.16666 12.2833C3.56666 12.6333 3.36666 13.4 3.71666 14L4.49999 15.3667H2.91666C2.23332 15.3667 1.66666 15.9333 1.66666 16.6167C1.66666 17.3 2.23332 17.8667 2.91666 17.8667H4.49999L3.69999 19.25C3.36666 19.85 3.56666 20.6167 4.16666 20.95ZM17.5 20.95C18.1 21.3 18.8667 21.0833 19.2167 20.4833L20 19.1167L20.8 20.5C21.15 21.1 21.9167 21.3 22.5167 20.9667C23.1167 20.6167 23.3167 19.8667 22.9833 19.2667L22.1833 17.8833H23.7667C24.45 17.8833 25.0167 17.3167 25.0167 16.6333C25.0167 15.95 24.45 15.3833 23.7667 15.3833H22.1667L22.95 14.0167C23.1148 13.7286 23.16 13.3874 23.0759 13.0664C22.9917 12.7453 22.7849 12.4702 22.5 12.3C22.3588 12.2179 22.2029 12.1644 22.041 12.1426C21.8792 12.1208 21.7146 12.1311 21.5568 12.1729C21.3989 12.2147 21.2508 12.2871 21.121 12.3862C20.9911 12.4852 20.882 12.6088 20.8 12.75L20 14.1167L19.2167 12.75C19.1352 12.6082 19.0265 12.4839 18.8967 12.3844C18.7669 12.2848 18.6187 12.212 18.4606 12.1702C18.3025 12.1283 18.1376 12.1182 17.9756 12.1405C17.8136 12.1628 17.6576 12.217 17.5167 12.3C16.9167 12.65 16.7167 13.4167 17.0667 14.0167L17.85 15.3833H16.25C16.0866 15.3811 15.9245 15.4114 15.7729 15.4724C15.6213 15.5334 15.4834 15.6239 15.3671 15.7386C15.2508 15.8534 15.1585 15.9901 15.0954 16.1408C15.0324 16.2916 15 16.4533 15 16.6167C15 17.3 15.5667 17.8667 16.25 17.8667H17.8333L17.0333 19.25C16.7 19.85 16.9 20.6167 17.5 20.95ZM38.3333 16.6167C38.3333 15.9333 37.7667 15.3667 37.0833 15.3667H35.5L36.2833 14C36.4482 13.712 36.4934 13.3707 36.4092 13.0497C36.3251 12.7287 36.1183 12.4535 35.8333 12.2833C35.6922 12.2012 35.5362 12.1478 35.3744 12.126C35.2125 12.1041 35.048 12.1144 34.8901 12.1562C34.7322 12.198 34.5842 12.2705 34.4543 12.3695C34.3245 12.4685 34.2154 12.5922 34.1333 12.7333L33.3333 14.1167L32.55 12.75C32.4686 12.6082 32.3598 12.4839 32.23 12.3844C32.1003 12.2848 31.952 12.212 31.7939 12.1702C31.6358 12.1283 31.471 12.1182 31.3089 12.1405C31.1469 12.1628 30.9909 12.217 30.85 12.3C30.25 12.65 30.05 13.4167 30.4 14.0167L31.1833 15.3833H29.6C29.4354 15.3796 29.2718 15.4087 29.1186 15.4689C28.9654 15.5291 28.8257 15.6193 28.7078 15.7341C28.5898 15.849 28.496 15.9862 28.4317 16.1377C28.3674 16.2892 28.3339 16.4521 28.3333 16.6167C28.3333 17.3 28.9 17.8667 29.5833 17.8667H31.1667L30.3667 19.25C30.2839 19.3918 30.2303 19.5487 30.209 19.7116C30.1877 19.8744 30.1991 20.0398 30.2425 20.1981C30.286 20.3565 30.3606 20.5045 30.4621 20.6337C30.5635 20.7628 30.6898 20.8703 30.8333 20.95C31.4333 21.3 32.2 21.0833 32.55 20.4833L33.3333 19.1167L34.1333 20.5C34.4833 21.1 35.25 21.3 35.85 20.9667C36.45 20.6167 36.65 19.8667 36.3167 19.2667L35.5167 17.8833H37.1C37.7667 17.8667 38.3333 17.3 38.3333 16.6167Z" fill="#FF6464"/>
</svg>